<svg width="120" height="164" viewBox="0 0 110 120" fill="none" xmlns="http://www.w3.org/2000/svg">
    <path d="M102.525 59.083C102.525 52.9145 97.5236 47.9135 91.3551 47.9135C90.9579 47.9135 90.5668 47.9348 90.1807 47.9756L105.522 2.72803H40.3268L55.6468 47.936C55.4208 47.9218 55.1943 47.9144 54.9678 47.9139C48.7993 47.9139 43.7984 52.914 43.7984 59.0834C43.7984 64.0695 47.0663 68.2911 51.5762 69.7273C49.1943 73.8533 46.1968 77.5697 42.7937 80.7807C38.166 85.146 32.87 88.4565 27.142 90.496C20.3221 86.9926 17.1018 79.2012 20.0075 72.3698C20.3357 71.5981 20.6707 70.8162 20.9909 70.0377C25.9315 68.8846 29.6135 64.4555 29.6135 59.1633C29.6135 52.9944 24.6126 47.9939 18.4437 47.9939C12.2747 47.9939 7.2742 52.9944 7.2742 59.1633C7.2742 62.9461 9.15604 66.2876 12.0332 68.3081C9.26872 74.6024 5.20485 81.1901 3.93867 88.8251C2.42121 97.9749 3.93357 107.688 11.8474 113.173C30.2781 125.947 50.2845 105.254 71.3784 100.052C79.0232 98.1671 87.4149 98.4707 94.1502 94.5701C99.2081 91.6406 102.543 86.7855 103.489 81.3351C104.424 75.9507 103.061 70.5896 99.9267 66.2425C101.608 64.2361 102.528 61.7009 102.525 59.083Z"
          fill="#99425B"/>
    <path d="M100.802 80.8682C99.9802 85.6005 97.0575 89.7336 92.7836 92.2094C88.7992 94.5169 84.0249 95.2057 78.9695 95.9344C76.2616 96.3247 73.4613 96.7291 70.7257 97.4034C63.4926 99.187 56.4865 102.667 49.7117 106.032C36.1527 112.767 24.4433 118.583 13.4022 110.931C5.31447 105.325 5.68778 94.9544 6.62998 89.2715C7.50329 84.006 9.86431 79.1569 12.1471 74.4676C12.536 73.6706 12.9218 72.8721 13.3044 72.0721C14.4552 72.5321 15.6626 72.835 16.8942 72.9726C14.5702 80.6424 18.225 88.9819 25.8957 92.9225L26.9459 93.462L28.0573 93.0662C34.1216 90.9063 39.7098 87.4411 44.6661 82.7645C47.8698 79.7419 50.6245 76.3979 52.8886 72.8247C53.5769 72.9285 54.2721 72.9807 54.9682 72.9807C62.0087 72.9807 67.8388 67.7174 68.741 60.9197C71.6229 60.8142 74.6837 60.8134 77.5822 60.9188C78.4836 67.7174 84.3145 72.9811 91.355 72.9811C94.2989 72.9811 97.0294 72.0585 99.2791 70.4913C100.841 73.6882 101.424 77.2852 100.802 80.8682ZM18.4444 50.7217C23.0993 50.7217 26.8859 54.5088 26.8859 59.1637C26.8859 60.8355 26.3953 62.3946 25.553 63.7076C24.1499 65.896 21.7647 67.396 19.0244 67.5831C18.8326 67.5958 18.6392 67.6052 18.4444 67.6052C17.407 67.6052 16.4133 67.416 15.4945 67.0724C13.6441 66.3766 12.0945 65.0568 11.1131 63.3406C10.3843 62.0692 10.0014 60.6291 10.0025 59.1637C10.0025 54.5088 13.7896 50.7217 18.4444 50.7217ZM46.5271 59.0833C46.5271 54.8541 49.6534 51.3425 53.7156 50.7353C54.1246 50.6737 54.543 50.6418 54.9686 50.6418C57.6749 50.6418 60.0843 51.9237 61.6294 53.9102C62.0165 54.4055 62.347 54.9424 62.615 55.511C63.1397 56.6287 63.4112 57.8485 63.4101 59.0833C63.4101 59.7581 63.3285 60.4141 63.1784 61.0434C62.3556 64.4873 59.4189 67.12 55.8202 67.4823C55.5405 67.5104 55.2564 67.5248 54.9686 67.5248C53.3449 67.5262 51.7556 67.0563 50.3937 66.1723C48.0696 64.6668 46.5271 62.0523 46.5271 59.0833ZM81.7596 49.0448C79.9226 50.7983 78.6005 53.021 77.9368 55.4723C74.755 55.355 71.5699 55.355 68.3881 55.4723C67.6738 52.8226 66.1933 50.4849 64.2014 48.7094L72.9367 31.0466L81.7596 49.0453V49.0448ZM44.132 5.45675H101.717L88.116 45.5703C87.5308 45.7104 86.9555 45.8887 86.3936 46.1039L72.9579 18.6956L59.484 45.9402C58.8966 45.7386 58.2963 45.5768 57.6872 45.4559L44.132 5.45675ZM99.7965 59.0837C99.7965 59.9298 99.6702 60.747 99.4377 61.5187C98.8859 63.3355 97.74 64.9144 96.1838 66.0023C94.7693 66.9949 93.083 67.5268 91.355 67.5252C87.4574 67.5252 84.1695 64.8691 83.2026 61.2721C83.0106 60.5585 82.9134 59.8227 82.9135 59.0837C82.9135 57.9298 83.1465 56.8294 83.5674 55.8269C83.7846 55.3139 84.0521 54.8237 84.3659 54.3634C85.8851 52.121 88.4485 50.6422 91.355 50.6422C91.6216 50.6422 91.8843 50.6558 92.145 50.6805C96.4308 51.0797 99.7969 54.695 99.7969 59.0837H99.7965ZM105.253 59.0837C105.253 52.2987 100.364 46.6375 93.9252 45.4283L109.328 0H36.5222L51.9485 45.5201C45.7333 46.9032 41.0712 52.4573 41.0712 59.0833C41.0712 64.0588 43.7005 68.4287 47.6411 70.8846C45.7456 73.7086 43.4981 76.366 40.9224 78.7963C36.8372 82.6497 32.2866 85.5724 27.3804 87.4955C22.4386 84.3913 20.3497 78.537 22.5189 73.4374L22.689 73.0377L23.0079 72.2877C28.4357 70.3943 32.3418 65.2284 32.3418 59.1637C32.3418 51.5002 26.1074 45.2658 18.4444 45.2658C10.781 45.2658 4.5466 51.5002 4.5466 59.1637C4.5466 63.0315 6.13677 66.5342 8.6955 69.0563C8.21827 70.0674 7.73384 71.0751 7.24223 72.0793C4.90247 76.8843 2.25106 82.3304 1.24806 88.3786C-0.743479 100.39 2.46917 109.992 10.2946 115.415C15.043 118.706 19.8654 120 24.7179 120C33.855 120 43.0984 115.409 52.139 110.919C58.6498 107.685 65.3825 104.341 72.0327 102.701C74.5073 102.091 77.0532 101.723 79.7489 101.335C85.0947 100.563 90.622 99.7662 95.5183 96.9306C101.194 93.6431 105.079 88.1286 106.178 81.8019C107.121 76.3702 105.986 70.9301 103.218 66.316C104.552 64.1395 105.256 61.636 105.253 59.0833L105.253 59.0837Z"
          fill="white"/>
</svg>
