<svg width="120" height="164" viewBox="0 0 120 120" fill="none" xmlns="http://www.w3.org/2000/svg">
<g clip-path="url(#clip0_120109_359)">
<path d="M83.1473 82.6012C87.5756 82.1427 90.9352 78.3252 90.7823 73.7437C90.63 69.1626 86.812 65.4974 82.2309 65.4974H81.9258C77.1914 65.6502 73.5267 69.6205 73.6795 74.3544C73.8323 76.6452 74.7483 78.6304 76.1227 80.0048C70.9308 90.2366 62.9902 97.7193 51.0792 103.98C42.9858 108.256 34.5872 109.784 26.1886 108.715C19.3167 107.798 13.972 104.744 10.612 99.7044C5.72578 92.2218 5.26781 84.1279 9.39093 76.0344C12.2925 70.2313 16.8731 65.9554 19.7747 63.8174C19.1639 61.8323 18.2475 58.4727 17.7895 56.0296C-4.35282 72.0641 -2.06204 93.749 4.65703 103.98C9.69609 111.616 19.9275 116.35 31.2276 116.35C34.2816 116.35 37.3355 116.045 40.3898 115.281C59.9362 111.464 74.7487 99.8573 83.1473 82.6012ZM110.024 63.6651C98.4178 50.0737 81.315 42.591 61.7686 42.591H59.3255C57.9511 39.8423 55.0495 38.0094 51.8428 38.0094H51.5372C46.8037 38.1623 43.1391 42.1326 43.2914 46.8669C43.4442 51.448 47.2617 55.1132 51.8428 55.1132H52.148C55.5075 54.9604 58.4091 52.8224 59.6306 49.9208H62.3794C73.9852 49.9208 84.9797 53.2804 94.9059 59.8471C102.541 64.8866 108.038 71.4534 111.092 79.394C113.688 85.8079 113.535 92.069 110.787 97.4141C106.511 105.508 99.3342 109.936 89.8664 109.936C83.7581 109.936 77.9555 108.104 74.9011 106.729C73.2216 108.256 70.1672 110.699 68.0292 112.227C74.5959 115.281 81.315 116.961 87.7284 116.961C102.388 116.961 113.23 108.867 117.353 100.774C121.782 91.9162 121.476 76.6452 110.024 63.6651ZM32.4492 85.1966C32.602 89.7782 36.4195 93.4429 41.0006 93.4429H41.3062C46.0401 93.2905 49.7048 89.3198 49.552 84.5858C49.3997 80.0043 45.5817 76.3396 41.0006 76.3396H40.6955C40.3898 76.3396 39.9314 76.3396 39.6267 76.4919C33.3656 66.1077 30.7697 54.8076 31.6861 42.5905C32.2964 33.4279 35.3508 25.4868 40.6955 18.9201C45.1237 13.2698 53.6751 10.521 59.4783 10.3687C75.6647 10.063 82.5361 30.2207 82.9945 38.3146C84.9797 38.7726 88.3392 39.8418 90.63 40.6054C88.7972 15.8666 73.5267 3.03882 58.8675 3.03882C45.1237 3.03882 32.4492 12.9651 27.4097 27.6252C20.3855 47.1721 24.9666 65.9554 33.518 80.7683C32.7548 81.8371 32.2964 83.5171 32.4492 85.1971V85.1966Z" fill="#764ABC"/>
</g>
<defs>
<clipPath id="clip0_120109_359">
<rect width="120" height="120" fill="white"/>
</clipPath>
</defs>
</svg>
