<svg width="120" height="164" viewBox="0 0 46 65" fill="none" xmlns="http://www.w3.org/2000/svg">
    <path d="M22.9719 65L4.18634 59.7793L0 12.7742H46.0001L41.8093 59.7722L22.9719 65Z" fill="#4353AD"/>
    <path d="M38.2216 56.7794L41.8025 16.6177H22.9999V61.0039L38.2216 56.7794Z" fill="#485FB5"/>
    <path d="M23 49.0235L22.9747 49.03L16.5613 47.2964L16.1513 42.6987H10.3704L11.1771 51.7505L22.9735 55.0288L23 55.0215V49.0235ZM8.55991 22.3827L9.08337 28.1476H23V22.3827H8.55991ZM9.59704 34.051L10.1131 39.816H23V34.051H9.59704Z"
          fill="#EDEDED"/>
    <path d="M36.3662 34.0512L37.4057 22.3829H22.9802V28.1477H31.0947L30.5708 34.0512H22.9802V39.8162H30.0715L29.4026 47.2932L22.98 49.0284V55.0261L34.7856 51.7507L34.872 50.7769L36.2257 35.5992L36.3662 34.0512Z"
          fill="white"/>
</svg>
