<svg width="120" height="164" viewBox="0 0 46 65" fill="none" xmlns="http://www.w3.org/2000/svg">
    <path d="M4.16571 59.7793L0 12.774H45.7746L41.6044 59.7719L22.8592 65L4.16571 59.7793Z" fill="#E53D20"/>
    <path d="M22.8873 61.0039L38.0343 56.7793L41.598 16.6174H22.8873V61.0039Z" fill="#F15123"/>
    <path d="M22.8873 34.0511H15.3044L14.7806 28.1476H22.8873V22.3825H22.8675H8.51785L8.65507 23.9292L10.0635 39.8159H22.8873V34.0511Z"
          fill="#EDEDED"/>
    <path d="M22.8873 49.0232L22.8622 49.03L16.4802 47.2962L16.072 42.6984H12.9709H10.3195L11.1224 51.7503L22.8609 55.0286L22.8873 55.0212V49.0232Z"
          fill="#EDEDED"/>
    <path d="M22.8675 34.0511V39.8159H29.9239L29.2588 47.2927L22.8675 49.0282V55.0259L34.6153 51.7504L34.7014 50.7765L36.0481 35.5991L36.1879 34.0511H34.6437H22.8675Z"
          fill="white"/>
    <path d="M22.8675 22.3827V28.1477H36.691H36.7093L36.8243 26.8518L37.0854 23.9293L37.2224 22.3827H22.8675Z"
          fill="white"/>
</svg>
